<svg width="30" height="30" viewBox="0 0 30 30" fill="none" xmlns="http://www.w3.org/2000/svg">
<path d="M13.2375 8.41881C13.3782 7.78834 13.2704 8.08834 12.3633 6.76177C11.5477 5.57115 11.7164 3.87896 10.7508 3.03756C10.1579 2.52193 9.41489 1.94302 6.64692 3.33521C5.68598 3.81802 3.76645 5.40943 1.59145 6.13834C-0.159331 6.72427 0.810982 7.43209 1.18364 7.56334C2.5102 8.02974 4.26567 7.02193 4.26567 7.02193C4.26567 7.02193 1.74848 8.66724 3.22739 9.05631C4.42739 9.37271 5.93911 7.93131 5.93911 7.93131C5.93911 7.93131 4.45786 9.50162 5.66958 9.90474C6.50161 10.1813 8.15395 8.60162 8.15395 8.60162C8.15395 8.60162 6.99848 10.2071 7.55629 10.5469C8.40473 11.0626 9.79457 9.73365 9.79457 9.73365C9.79457 9.73365 8.69067 11.3461 9.26723 11.6086C10.1297 12.0024 11.4094 10.8961 11.4094 10.8961C11.4094 10.8961 12.9844 9.54615 13.2375 8.41881Z" fill="#E0E0E0"/>
<path d="M8.36259 3.22498C8.36259 3.22498 6.85322 4.11091 6.30244 4.82341C6.22978 4.91716 5.77744 5.36951 6.17587 5.62966C6.27665 5.69529 6.57665 5.6531 6.75478 5.54529C7.56572 5.0531 9.00009 3.88591 9.15712 3.94685C9.31415 4.00779 7.87509 4.95466 7.41103 6.10076C7.23759 6.53201 7.57509 6.84138 8.454 6.32341C9.41025 5.76091 10.2329 4.76951 10.3712 4.77419C10.3712 4.77419 9.98681 5.44451 9.49462 5.97419C8.99306 6.5156 8.63915 7.06638 9.00947 7.23982C9.47587 7.46013 10.4837 6.86248 10.4837 6.86248C10.4837 6.86248 9.8415 7.6406 9.00947 7.81638C8.7165 7.87966 8.48681 7.83982 8.34619 7.68044C8.1329 7.43669 8.21493 7.06169 8.21493 7.06169C7.77197 7.23748 7.0079 7.52341 6.55322 7.13904C6.19931 6.83904 6.68212 5.96013 6.68212 5.96013C6.68212 5.96013 5.82665 6.43357 5.33915 6.2906C5.08603 6.2156 4.69931 5.84998 5.26415 5.07419C6.15478 3.86248 8.36259 3.22498 8.36259 3.22498ZM10.1673 11.7492C11.1446 10.4789 12.122 9.21091 13.0993 7.9406L13.0149 7.57498C12.9727 7.44607 12.5884 7.42966 12.0563 7.73669C11.7001 7.94294 11.0462 8.68357 10.6267 8.27576C10.336 7.99451 11.1704 6.98904 11.1704 6.98904C11.0556 6.99138 10.1298 7.61013 9.98212 8.23123C9.85556 8.75857 9.97744 9.37732 11.1681 8.77498C11.2032 8.75623 11.2407 8.73513 11.2759 8.71404C11.1259 8.95076 10.9899 9.19919 10.8751 9.45232C10.5423 10.1836 10.3454 10.9664 10.1673 11.7492Z" fill="#BDBDBD"/>
<path d="M19.0757 2.60864L19.0921 2.62036L19.0757 2.60864Z" fill="url(#paint0_linear_171_639)"/>
<path d="M20.421 16.6007C18.0655 20.1304 16.085 24.0187 11.5804 25.2093C11.5335 25.2211 11.4843 25.207 11.4515 25.1718L4.09208 17.0507C3.87411 16.8093 3.98192 16.4273 4.2913 16.3265C7.31708 15.3328 9.20614 12.9656 10.889 10.4414C13.2093 6.96559 15.1968 3.14059 19.5585 1.88668C19.7249 1.8234 19.9194 1.86324 20.046 2.00153C21.0233 3.07965 28.3944 10.0968 28.4061 10.1109C28.4108 10.1132 22.228 13.8914 20.421 16.6007Z" fill="#66BB6A"/>
<path d="M13.6196 18.2133C13.4603 18.0539 13.2704 17.9742 13.0501 17.9765C12.8298 17.9789 12.5438 18.0679 12.1899 18.2437C11.7095 18.4992 11.2923 18.6187 10.9431 18.607C10.5938 18.5929 10.2798 18.4476 10.0032 18.1687C9.71963 17.8851 9.56963 17.5687 9.55556 17.2219C9.53916 16.875 9.65869 16.5398 9.91416 16.2164L9.4665 15.7664C9.43492 15.7341 9.41724 15.6908 9.41724 15.6457C9.41724 15.6005 9.43492 15.5572 9.4665 15.525L9.61181 15.3797C9.67744 15.314 9.78525 15.314 9.85322 15.3797L10.3032 15.832C10.6337 15.5812 10.9829 15.4781 11.3485 15.5203C11.6767 15.5601 12.0001 15.7218 12.3165 16.0125C12.3774 16.0687 12.3774 16.1672 12.3188 16.2258L12.0517 16.4929C11.9954 16.5492 11.904 16.5492 11.8454 16.4953C11.6345 16.3125 11.4165 16.207 11.1938 16.1836C10.9337 16.1554 10.704 16.2398 10.5071 16.4367C10.3009 16.6429 10.1954 16.8539 10.1931 17.0672C10.1907 17.2828 10.2845 17.4867 10.4743 17.6765C10.6501 17.8547 10.8493 17.9367 11.0696 17.9273C11.2899 17.9179 11.5735 17.8242 11.9251 17.6461C12.2767 17.4679 12.5743 17.3578 12.8274 17.3133C13.0782 17.2687 13.3079 17.2804 13.5142 17.3461C13.7204 17.414 13.9149 17.5383 14.0978 17.7211C14.3884 18.014 14.536 18.3375 14.5384 18.6914C14.5407 19.0453 14.4001 19.3968 14.1142 19.7461L14.4892 20.1211C14.5548 20.1867 14.5548 20.2945 14.4892 20.3625L14.3462 20.5054C14.2806 20.5711 14.1728 20.5711 14.1048 20.5054L13.7298 20.1304C13.3782 20.4211 13.0103 20.5593 12.6282 20.5406C12.2884 20.5242 11.9626 20.3789 11.6532 20.1047C11.6384 20.0912 11.6265 20.0749 11.6182 20.0566C11.61 20.0383 11.6057 20.0186 11.6054 19.9985C11.6052 19.9785 11.6091 19.9586 11.617 19.9402C11.6248 19.9218 11.6363 19.9051 11.6509 19.8914L11.9228 19.6218C11.9767 19.5679 12.0634 19.5633 12.122 19.6125C12.3306 19.7929 12.5462 19.8843 12.7688 19.889C13.0243 19.8937 13.2681 19.7789 13.5001 19.5468C13.7274 19.3218 13.8517 19.0875 13.8728 18.8508C13.8892 18.614 13.8071 18.4008 13.6196 18.2133Z" fill="white"/>
<path d="M14.2194 19.8609L13.7272 20.1351L9.92334 16.2304L9.79443 16.0992L10.303 15.8344L14.1069 19.7484L14.2194 19.8609Z" fill="white"/>
<path opacity="0.5" d="M17.7845 14.0555C19.651 14.0555 21.1642 12.5424 21.1642 10.6758C21.1642 8.80928 19.651 7.29614 17.7845 7.29614C15.9179 7.29614 14.4048 8.80928 14.4048 10.6758C14.4048 12.5424 15.9179 14.0555 17.7845 14.0555Z" fill="#2E7D32"/>
<path d="M21.6001 18.3797C20.3931 20.189 18.654 23.6414 16.2587 25.5398C14.0603 27.2836 11.2876 28.1437 11.2876 28.1437L3.65869 19.2093L3.9751 16.7578L11.4563 25.1742C11.4868 25.207 11.5337 25.2234 11.5782 25.2117C16.0853 24.0211 18.0657 20.1328 20.4212 16.6031C22.2282 13.8937 24.9306 11.0062 28.4087 10.1156C28.6853 10.4203 28.5634 12.975 28.261 13.0758C25.179 14.0976 23.2876 15.8461 21.6001 18.3797Z" fill="#2E7D32"/>
<path d="M18.4805 19.575L19.1883 22.1883C19.1883 22.1883 21.3445 19.0336 21.6937 18.2695L20.9109 15.9141C19.8656 17.2148 18.4805 19.575 18.4805 19.575Z" fill="#FFC06C"/>
<path d="M18.2977 3.98667C18.4781 4.24683 18.7945 4.51636 19.3031 4.67339C19.4836 4.72964 19.6734 4.75776 19.8633 4.75776C20.2664 4.75776 20.6039 4.63355 20.8313 4.5187C21.4008 5.09058 22.1133 5.78667 22.8023 6.46167C23.4773 7.12261 24.1711 7.8023 24.7359 8.36714C24.5531 8.64605 24.4078 9.06792 24.4688 9.63745C24.4969 9.89995 24.682 10.1671 24.8789 10.3851C23.632 11.1867 21.2391 12.9679 18.7852 16.1085C18.2672 16.7718 17.7609 17.5078 17.2734 18.2179C16.0594 19.9851 14.8055 21.8085 13.1367 22.9242C12.9398 22.6031 12.5766 22.214 11.9273 22.0523C11.7703 22.0125 11.6156 21.9937 11.468 21.9937C11.0508 21.9937 10.7227 22.1484 10.4883 22.3312L6.94922 18.2625C7.24687 18.0304 7.52578 17.6343 7.55391 17.0226C7.56797 16.7367 7.41562 16.4765 7.24219 16.2796C8.96719 15.0023 10.7883 12.9656 11.768 11.5031C11.9109 11.2898 12.0586 11.0671 12.2109 10.8375C13.7438 8.52417 15.8203 5.4023 18.2977 3.98667ZM18.4828 3.43823C15.5016 4.9148 13.1273 8.76089 11.4375 11.2781C10.3312 12.9257 8.33203 15.075 6.60938 16.2351C6.60938 16.2351 7.17422 16.6359 7.15547 16.9992C7.10859 17.9742 6.31641 18.1382 6.31641 18.1382L10.4766 22.9195C10.4766 22.9195 10.7812 22.3851 11.4656 22.3851C11.5758 22.3851 11.6977 22.3992 11.8289 22.432C12.7711 22.6664 12.9609 23.496 12.9609 23.496C15.6188 21.9492 17.2242 18.7453 19.0945 16.3476C21.6328 13.0968 24.157 11.2546 25.5234 10.446C25.5234 10.446 24.8953 9.93745 24.8602 9.59058C24.7641 8.67886 25.2797 8.35073 25.2797 8.35073C24.0727 7.12964 22.0898 5.22886 20.8898 4.01245C20.8898 4.01245 20.4539 4.35464 19.8609 4.35464C19.7203 4.35464 19.5703 4.33589 19.418 4.28901C18.5555 4.02886 18.4828 3.43823 18.4828 3.43823Z" fill="#2E7D32"/>
<path d="M12.614 7.80933L10.3335 11.257L18.4804 19.575C18.4804 19.575 19.8116 17.4703 20.9085 15.914L12.614 7.80933Z" fill="#FFECB3"/>
<path opacity="0.68" d="M21.2391 16.9031C21.2391 16.9031 19.6313 17.721 19.193 20.2148C19.0266 21.157 19.1906 22.1882 19.1906 22.1882L20.5172 20.1468L21.4664 17.3085L21.2391 16.9031Z" fill="#D69136"/>
<path d="M20.7775 17.4445C21.2439 16.9968 21.3985 16.8586 22.8564 16.7531C24.2954 16.6476 24.9564 16.0172 26.7751 16.3945C27.5439 16.5539 28.7626 17.257 28.4532 20.0601C28.336 21.1289 28.3642 23.5992 28.8681 25.8375C29.2735 27.6375 28.165 27.1757 27.8603 26.925C26.7728 26.032 26.7259 24.0093 26.7259 24.0093C26.7259 24.0093 26.6228 27.014 25.5235 25.9523C24.6329 25.0898 25.0806 23.0507 25.0806 23.0507C25.0806 23.0507 24.504 25.132 23.5314 24.3023C22.8634 23.7328 23.3603 21.5015 23.3603 21.5015C23.3603 21.5015 22.5845 23.3226 22.0079 23.0203C21.1267 22.5609 21.5439 20.6836 21.5439 20.6836C21.5439 20.6836 20.7376 22.4625 20.2126 22.1039C19.4298 21.5695 19.7134 19.9031 19.7134 19.9031C19.7134 19.9031 19.9431 18.2437 20.7775 17.4445Z" fill="#E0E0E0"/>
<path d="M27.7359 18.5813C27.7359 18.5813 27.8484 20.0297 27.7477 20.8946C27.6844 21.4313 27.6563 21.9235 27.1641 21.8508C27.0445 21.8321 26.7656 21.6 26.7164 20.7071C26.6648 19.7602 26.8617 18.5086 26.7234 18.4149C26.5852 18.3188 26.5781 19.9618 25.8938 20.9907C25.6359 21.3774 25.2023 21.4196 25.1344 20.4C25.0594 19.2915 25.6336 17.979 25.5516 17.8665C25.5516 17.8665 25.0664 18.4641 24.7852 19.3102C24.5039 20.1563 24.3797 20.5547 24.0492 20.311C23.4563 19.875 24.3258 18.1383 24.3258 18.1383C24.3258 18.1383 23.6883 18.7079 23.4117 19.5047C23.2359 20.011 23.332 20.843 23.782 21.054C24.3117 21.3024 24.6211 20.8594 24.6211 20.8594C24.6211 20.8594 24.7336 22.2774 25.425 22.2469C26.0883 22.2165 26.257 21.4688 26.257 21.4688C26.257 21.4688 26.2289 22.1907 26.8992 22.6852C27.225 22.9266 27.982 22.9665 28.0758 22.0102C28.2281 20.4586 27.7359 18.5813 27.7359 18.5813ZM22.282 18.0727C22.1391 18.0375 21.9328 18.6821 21.675 19.0454C21.5766 19.1813 21.3656 19.4602 21.0422 19.4368C20.7188 19.4133 20.9742 18.4618 20.8992 18.5133C20.8242 18.5649 20.5219 19.0735 20.6414 19.6641C20.6742 19.8282 20.8406 20.0227 21.0047 20.0485C21.6188 20.1469 21.8883 19.3922 21.8883 19.3922C21.8883 19.3922 21.7969 20.2946 22.4039 20.3883C23.1375 20.5008 23.2875 19.3454 23.2219 19.3032C23.1563 19.261 22.9195 20.0297 22.3969 19.7016C21.968 19.4297 22.425 18.1102 22.282 18.0727Z" fill="#BDBDBD"/>
<path d="M3.65869 19.2071L11.2595 28.111C11.2595 28.111 11.5993 27.6071 11.6767 26.8219C11.7446 26.1375 11.5056 25.2281 11.5056 25.2281L3.9751 16.7555L3.65869 19.2071Z" fill="#206022"/>
<defs>
<linearGradient id="paint0_linear_171_639" x1="19.0842" y1="2.6149" x2="19.0842" y2="2.6149" gradientUnits="userSpaceOnUse">
<stop stop-color="#43A047"/>
<stop offset="0.999" stop-color="#66BB6A"/>
</linearGradient>
</defs>
</svg>
