<svg width="30" height="30" viewBox="0 0 30 30" fill="none" xmlns="http://www.w3.org/2000/svg">
<path d="M15 13.75C17.7614 13.75 20 11.5114 20 8.75C20 5.98858 17.7614 3.75 15 3.75C12.2386 3.75 10 5.98858 10 8.75C10 11.5114 12.2386 13.75 15 13.75Z" stroke="#10B981" stroke-width="1.5"/>
<path d="M15 13.75V22.5" stroke="#10B981" stroke-width="1.5" stroke-linecap="round"/>
<path d="M19.8087 20C21.8675 22.6412 22.8962 23.9625 22.3587 25.0075C22.3087 25.1042 22.2504 25.1971 22.1837 25.2862C21.465 26.25 19.6087 26.25 15.8962 26.25H14.1025C10.39 26.25 8.53499 26.25 7.81624 25.2862C7.75035 25.1983 7.69182 25.1051 7.64124 25.0075C7.10374 23.9613 8.13249 22.6412 10.1912 20" stroke="#10B981" stroke-width="1.5" stroke-linecap="round" stroke-linejoin="round"/>
</svg>
